<?xml version="1.0" encoding="UTF-8"?>
<svg id="Layer_1" data-name="Layer 1" xmlns="http://www.w3.org/2000/svg" viewBox="0 0 2560 2560">
  <defs>
    <style>
      .cls-1 {
        fill: #eb2229;
      }

      .cls-2 {
        fill: #2c388f;
      }

      .cls-3 {
        fill: #fff;
      }
    </style>
  </defs>
  <path class="cls-2" d="M2196.87,1544.76l-1833.1.17c-189.94.02-336.47-166.6-336.84-351.13-.36-180.01,142.79-351.02,330.73-351.03l1844.37-.12c183.39-.01,325.17,163.54,330.87,339.08,6.11,187.94-140.83,363-336.02,363.02ZM2516.73,1175.4c-9.37-173.95-150.66-318.47-326.75-318.5l-1816.16-.32c-188.39-.03-334.66,158.33-330.93,344.42,3.41,170.05,140.83,327.94,318.81,327.93l1836.17-.11c187.44-.01,328.65-171.98,318.87-353.43Z"/>
  <path class="cls-2" d="M1030.94,1667.31c-13.96-3.45-28.01-1.74-42.46-1.76l-.4,32.73c-.04,3.48,2.53,10.49,5.27,12.27,9.31,6.03,22.68.55,22.57,4.4l-.33,11.27-87.35-.09-.44-11.16c-.16-4.02,12.84,1.54,22.55-4.6,2.72-1.72,5.1-8.4,5.1-12.33l-.11-82.41c0-6.83-6.23-11.19-12.32-11.33l-13.57-.31.31-13.83,95.18.16c15.22.03,30.92,4.22,43.12,12.11,13.59,8.79,19.81,27.41,9.66,40.19-8.37,10.55-22.23,12.92-35.28,17.38,28.93,17.64,24.24,17.5,29.25,46.92,8.5-.9,8.14-6.98,8.56-13.22l.46-6.9c.13-1.89,6.65-1.61,8.99-.82,1.34,6.61,1.56,17.29.07,24.84-2.66,13.52-16.41,18.67-28.09,14.21-31.82-12.14-9.01-52.34-30.73-57.71ZM1047.49,1628.76c.35-10.44-3.99-22.29-16.27-23.53-14.28-1.45-28.73-1.02-43-.56l.18,46.44c19.64.62,58.2,4.1,59.09-22.35Z"/>
  <path class="cls-2" d="M1966.28,1694.52c.2-10.12-1.79-25.17-12.32-27.53-13.17-2.95-27.18-1.4-42.08-1.55l-.35,32.62c-.04,3.47,2.17,9.67,4.52,11.78,8.8,7.89,22.15-.63,23.73,6.71.66,3.05-1.04,9.77-4.27,9.77l-83.41-.19-.38-11.2c-.11-3.29,26.97,2.58,27.02-13.08l.27-86.15c.02-6.51-6.12-11.16-11.87-11.37l-14.19-.5.35-13.74,95.63.25c15.72.04,31.64,4.29,44,13.02,12.21,8.62,17.93,25.68,9.26,37.93-8.09,11.44-22.3,14.08-35.79,18.72,40.2,22.56,20.41,35.94,29.75,46.21,1.35,1.48,6.41-2.46,6.69-4.59l2.1-16.08,9.26.27c1.05,14.82,1.79,39.83-18.31,40.69-17.53.75-29.98-12.85-29.6-31.99ZM1971.23,1626.81c-.25-9.99-5.63-21.14-17.6-21.86-13.95-.84-27.46-.69-41.93-.53l.03,46.63c19.72.71,60.22,4.41,59.5-24.24Z"/>
  <path class="cls-2" d="M700.17,1721.31l-89.39-91.89-.54,70.58c-.04,5.39,5.1,12.2,10.15,12.31l23.75.5-.74,13.48h-79.16s-.76-13.42-.76-13.42l19.93-.54c4.53-.12,10.01-5.21,10.01-10.28l.02-86.33c0-6.82-5.86-11.81-12.36-11.84l-17.38-.08-.12-13.56,51.27-.06,83.6,90.21.56-62.83c.07-7.72-6.57-13.58-13.95-13.72l-19.67-.12.34-13.53h80.19s.37,13.29.37,13.29l-17.33.49c-7.74.22-12.72,6.02-12.73,13.83l-.06,107.45c-5.67,2.06-11.6.58-16-3.93Z"/>
  <path class="cls-2" d="M490.41,1677.93c-.41-19.09-24.67-13.22-37.43-13.86l-.02,48.63,47.68.29c6.24.04,12.73-4.24,15.56-9.9l18.5-36.99c1.1-2.19,8.5-2.02,9.56-.28l-6.7,50.48c-.77,5.78-6.98,10.05-12.75,10.05l-131.18-.1c-.55-4.35-.94-9.09-.7-11.37.46-4.31,30.89,2.58,30.98-11.73l.55-87.42c.04-5.98-5.79-11.84-11.32-11.93l-20.44-.34.48-13.26,135.73-.06c3.82,0,7.87,3.61,8.44,7.96l6.75,51.46c.24,1.83-5.21,3.89-6.42,2.86s-3.81-3.68-4.69-5.47l-16.54-33.44c-2.12-4.28-8.42-9.71-13.38-9.72l-50.08-.07-.05,48.39,23.93.34c8.3.12,13.46-6.8,13.53-14.41l.14-15.16,13.4-.11.08,71.39c-3.08.49-8.9.93-13.23,1.05l-.37-17.26Z"/>
  <path class="cls-2" d="M853.94,1676.74c-.3-6.43-6.8-12.74-12.83-12.75h-24.72s-.06,48.89-.06,48.89l48.42.04c5.82,0,12.44-4.45,15.18-9.94l18.44-36.79c1.07-2.14,8.45-2.09,9.58-.64l-6.74,50.49c-.75,5.62-6.29,10.24-12.4,10.24h-131.17c-1.09-4-1.84-9.34-.89-11.48,1.92-4.3,30.93,2.55,31.02-12.13l.55-86.69c.04-5.73-5.96-12.06-11.2-12.14l-20.66-.32.54-13.35,135.93-.06c3.58,0,7.57,4.18,8.01,7.53l7.01,53.63c-1.37,1.01-8.6.95-9.69-1.21l-19.15-38.06c-1.95-3.88-8.42-8.22-12.09-8.23l-50.63-.08-.09,48.37,22.7.51c7.67.17,14.66-5.04,14.97-13.03l.64-16.51c2.84-.53,9.35-.41,12.83.26l.02,71.23-12.67.63-.87-18.42Z"/>
  <path class="cls-2" d="M1182.38,1665.41c-.58-3.13-.62-9.89-.09-14.07l82.79-.02c2.9,2.88,2.98,11.82.47,13.98l-20.87.6-2.76,55.99c-13.61,7.84-14.9-10.21-22.54-9.97-29.46,25.37-72.3,15.31-96.47-9.75-28.96-30.04-22.88-74.1,9.5-98.6,28.31-21.42,65.14-22.59,91.97,2.91l5.55-15.55,10.81-.4,3.57,51.49-18.77-.43c-3.87-12.16-8.09-21.81-16.57-29.96-15.52-14.93-39.43-13.87-53.64,3.17-20.89,25.05-20.28,63.88,2.55,87.39,14.76,15.19,41.42,15.7,51.79-3.08,2.67-9.76-.09-22.47-.92-33.32l-26.38-.36Z"/>
  <path class="cls-2" d="M1820.34,1706.61c-33.26,32.01-86.69,30.63-118.27-1.6-25.92-26.45-24.74-66.77,2.25-92.04,31.64-29.63,81.88-30.11,114.13-1.17,28.41,25.49,30.23,67.54,1.89,94.82ZM1791.96,1701.5c19.27-24.28,18.74-58.96.17-82.65-7.23-9.22-18.04-14.52-28.37-14.77-10.82-.26-21.78,4.58-29.33,13.67-19.99,24.07-20.11,60.18-.29,84.36,7.59,9.27,18.67,14.37,29.74,14.06,9.76-.27,20.53-5.18,28.08-14.68Z"/>
  <path class="cls-2" d="M2108.08,1713.45c2.87-.14,10.11-.69,10.01,1.49l-.53,11.27h-86.1s-1.28-9.8-1.28-9.8c-.72-5.54,13.38-.29,22.32-5.76,2.99-1.83,5.67-8.42,5.67-12.78l-.08-81.85c0-7.06-6.71-11.75-12.99-11.82l-13.29-.16.32-13.74,100.18.38c21.61.08,54.01,12.13,52.88,40.06-.98,24.34-35.27,34.21-58.22,34.44l-36.14.37-.21,32.41c-.06,9.65,5.97,16.07,17.49,15.5ZM2150.11,1628.63c.38-10.32-4.26-22.2-16.48-23.37-14.08-1.35-28.06-1.03-42.9-.8l.05,46.88c19.08,0,58.35,4.17,59.33-22.7Z"/>
  <path class="cls-2" d="M1375.27,1672.18c-.46,11.27-5.51,39.41,9.26,39.85l20.6.62-.94,14.14-89.82.13-1.26-14.51,22.24-.22c4.91-.05,11.06-4.96,11.05-10.06l-.06-29.91-45.77-64.61c-8.38-3.26-18.09-2.95-28.94-3.28l-.49-14.13,89.72-.05.72,13.98-29.17,1.42,36.68,58.44,35.79-58.21-28.83-1.62c-2.39-1.86-2.39-9.71-.94-14.02l78,.2c.05,6.21-.26,11.47-1.34,14.08-7.82.88-19.39-1.02-23.83,4.33l-52.66,63.44Z"/>
  <path class="cls-2" d="M1583.23,1617.8c-20.85,24.71-19.87,62.56,1.1,85.9,15.37,17.11,39.64,16.29,54.44-.02,8.61-9.48,12.57-19.6,15.54-33.15l17.83.38c-4.9,30.95-29.34,55.74-61.91,58.23-28.31,2.16-56.36-14.38-70.06-38.61-17.49-30.93-5.34-65.44,22-85.39,28.29-20.64,64.5-20.18,90.1,4.39l5.59-14.9c.85-2.22,8.68-1.11,10.84-.17l3.88,57.25-17.82-.07c-3.08-14.92-7.53-27.35-18.33-37.42-15.33-14.3-38.5-13.86-53.21,3.57Z"/>
  <ellipse class="cls-2" cx="2186.58" cy="1708.27" rx="18.9" ry="18.88"/>
  <path class="cls-2" d="M2464.94,1183.89c5.38,154.28-116.19,294.05-274.95,294.03l-1822.39-.22c-154.09-.02-272.3-135.35-272.7-282.37-.44-164.05,128.72-287.85,290.82-287.84l1790.26.14c156.15.01,283.42,117.53,288.95,276.25ZM362.81,1370.1c-1.32,4.28-1.22,8.68.38,11.44l377-.03c1.4-3.83,1.33-9.39-1.26-11.42l-119.96-.05-.21-394.47c-22.69,16-39.45,29.56-62.18,38.39-63.49,24.66-125.63,28.83-193.77,25.81-1.01,2.89-1.11,7.73.13,10.72l125.76.35v319.19s-125.9.08-125.9.08ZM893.18,1236.06c-28.68-16.34-64.2-13.2-90.14,5.63-15.35,11.14-21.85,27.74-20.74,46.74,2.77,47.61,59.85,72.48,100.37,82.12,81.79,19.46,185.42,15.16,261.53-23.36,20.46-10.35,38.34-23.54,52.17-41.16,22.39-28.54,22.85-65.55.94-94.4-47.01-61.93-155.35-90.33-230.39-86.14-42.46,5.05-79.38,19.51-117.43,40.27l19.2-94.13,254.07.85c40.03-5.81,85.86-44.98,82.31-87.9l-9.58-.14c-4.41,33.1-39.73,44.36-67.81,46.81-67.22,5.86-143.7-12.57-207.97-31.42-20.51-6.01-40.76-8.55-61.68-6.57l-29.15,192.69c6.53.95,15.81,1.4,21.02-.08,49.92-41.35,119.28-52.51,180.05-35.02,32.25,9.28,54.99,33.3,61.8,66.23,6.14,29.67,5.09,60.3-2.33,89.6-14.45,57.05-72.06,65.1-122.62,63.5-40.1-1.27-117.23-9.85-140.08-47.25,39.23,8.52,93.14-15.1,88.45-55.7-1.34-11.58-8.93-23.72-21.99-31.16ZM2218.95,1187.05c0-114.35-92.77-207.05-207.21-207.05s-207.21,92.7-207.21,207.05,92.77,207.05,207.21,207.05,207.21-92.7,207.21-207.05ZM1346.72,1338.92c28.82,1.58,53.3-4.41,71.39-23.48,8.56-9.88,13.54-21.93,11.41-34.58-1.81-10.74-8.46-21.71-19.24-28.57-30.71-19.56-73.12-15.27-98.96,9.4-18.15,17.33-17.13,39.15-4.07,58.04,16.44,23.77,37.72,42.12,66.62,51.84,108.34,36.47,243.02,4.04,308.26-93.71,32.81-49.17,38.69-108.88,13.54-163.23-21.16-45.73-58.07-85.19-105.48-105.5-85.89-36.79-216.54-28.35-278.36,43.85-27.63,32.26-29.04,76.1-2.78,109.37,45.14,57.19,140.33,77.65,207.14,65.57,39.73-7.19,69.8-34.45,84.22-70.05,10.1,60.22,1.24,151.2-55.04,184.59-45.91,27.24-102.15,33.98-153.34,20.88-17.8-4.55-33.98-11.54-45.32-24.42ZM2424.77,1193.5c0-25.5-20.68-46.16-46.2-46.16s-46.2,20.67-46.2,46.16,20.68,46.16,46.2,46.16,46.2-20.67,46.2-46.16ZM230.06,1198.91c0-25.49-20.68-46.15-46.19-46.15s-46.19,20.66-46.19,46.15,20.68,46.15,46.19,46.15,46.19-20.66,46.19-46.15Z"/>
  <path class="cls-3" d="M1346.72,1338.92c11.34,12.88,27.52,19.87,45.32,24.42,51.19,13.1,107.44,6.35,153.34-20.88,56.28-33.39,65.15-124.37,55.04-184.59-14.42,35.61-44.49,62.87-84.22,70.05-66.82,12.08-162-8.37-207.14-65.57-26.26-33.27-24.84-77.1,2.78-109.37,61.82-72.2,192.47-80.64,278.36-43.85,47.4,20.3,84.32,59.77,105.48,105.5,25.15,54.35,19.27,114.06-13.54,163.23-65.23,97.75-199.92,130.18-308.26,93.71-28.9-9.73-50.18-28.07-66.62-51.84-13.06-18.89-14.08-40.71,4.07-58.04,25.84-24.67,68.24-28.96,98.96-9.4,10.78,6.86,17.43,17.83,19.24,28.57,2.13,12.65-2.85,24.7-11.41,34.58-18.09,19.08-42.57,25.06-71.39,23.48ZM1561.21,1184.94c40.37-45.84,39.14-116.7-1.48-160.91-35.94-39.12-93.7-38.84-129.43.37-40.98,44.98-41.04,116.71-.12,161.69,36.13,39.72,94.82,39.96,131.03-1.15Z"/>
  <path class="cls-3" d="M2218.95,1187.05c0,114.35-92.77,207.05-207.21,207.05s-207.21-92.7-207.21-207.05,92.77-207.05,207.21-207.05,207.21,92.7,207.21,207.05ZM2111.86,1255.16c5.94-50.31,5.69-100.19.43-150.69-4.67-44.76-22.88-88.45-70.85-98.46-20.97-4.37-42.09-4.57-62.41,2.61-88.52,31.25-76.88,187.37-64.74,259.87,9.26,55.28,35.97,103.44,98.47,103.8,68.5.4,92.2-58.62,99.11-117.13Z"/>
  <path class="cls-3" d="M893.18,1236.06c13.06,7.44,20.65,19.58,21.99,31.16,4.69,40.61-49.22,64.23-88.45,55.7,22.84,37.4,99.98,45.98,140.08,47.25,50.56,1.6,108.18-6.44,122.62-63.5,7.42-29.3,8.46-59.93,2.33-89.6-6.81-32.94-29.56-56.95-61.8-66.23-60.76-17.48-130.13-6.33-180.05,35.02-5.21,1.48-14.49,1.03-21.02.08l29.15-192.69c20.92-1.98,41.17.56,61.68,6.57,64.27,18.84,140.76,37.28,207.97,31.42,28.08-2.45,63.4-13.71,67.81-46.81l9.58.14c3.54,42.92-42.29,82.1-82.31,87.9l-254.07-.85-19.2,94.13c38.05-20.76,74.97-35.22,117.43-40.27,75.04-4.19,183.38,24.22,230.39,86.14,21.91,28.86,21.45,65.86-.94,94.4-13.83,17.62-31.71,30.81-52.17,41.16-76.11,38.52-179.74,42.82-261.53,23.36-40.52-9.64-97.59-34.52-100.37-82.12-1.11-19,5.4-35.6,20.74-46.74,25.94-18.83,61.46-21.96,90.14-5.63Z"/>
  <path class="cls-3" d="M362.81,1370.1l125.9-.08v-319.19s-125.76-.35-125.76-.35c-1.24-2.99-1.14-7.83-.13-10.72,68.14,3.02,130.28-1.16,193.77-25.81,22.73-8.83,39.49-22.39,62.18-38.39l.21,394.47,119.96.05c2.59,2.03,2.66,7.6,1.26,11.42l-377,.03c-1.6-2.75-1.7-7.16-.38-11.44Z"/>
  <ellipse class="cls-1" cx="183.88" cy="1198.91" rx="46.19" ry="46.15"/>
  <ellipse class="cls-1" cx="2378.57" cy="1193.5" rx="46.2" ry="46.16"/>
  <path class="cls-2" d="M1561.21,1184.94c-36.21,41.12-94.9,40.87-131.03,1.15-40.92-44.98-40.86-116.7.12-161.69,35.73-39.22,93.49-39.49,129.43-.37,40.62,44.2,41.85,115.07,1.48,160.91Z"/>
  <path class="cls-2" d="M2111.86,1255.16c-6.91,58.51-30.61,117.53-99.11,117.13-62.49-.36-89.21-48.52-98.47-103.8-12.14-72.5-23.78-228.62,64.74-259.87,20.32-7.17,41.44-6.98,62.41-2.61,47.97,10,66.19,53.7,70.85,98.46,5.27,50.5,5.51,100.37-.43,150.69Z"/>
</svg>