<?xml version="1.0" encoding="UTF-8"?>
<svg id="Layer_1" data-name="Layer 1" xmlns="http://www.w3.org/2000/svg" viewBox="0 0 2560 2560">
  <defs>
    <style>
      .cls-1 {
        fill: #146b93;
      }

      .cls-2 {
        fill: #19938f;
      }

      .cls-3 {
        fill: #28b687;
      }

      .cls-4 {
        fill: #1e4799;
      }

      .cls-5 {
        fill: #1f4698;
      }

      .cls-6 {
        fill: #204698;
      }
    </style>
  </defs>
  <g>
    <g>
      <path class="cls-5" d="M138.33,1320.19l-.31-69.56-24.53,53.62c-4.65,1.5-9.38,1.11-14.51.3l-24.76-54.02-.31,69.71c-6.2.52-11.81.87-17.89-.31l-.02-111.06c6.43-.96,12.22-.69,18.83-.15l31.61,70.17,31.12-70.16c6.44-.57,12.26-.78,18.71.13l-.11,111.31c-6.52.7-11.78.71-17.84.01Z"/>
      <path class="cls-4" d="M740.33,1320.19l-.3-69.55-24.56,53.67c-4.61,1.46-9.35,1.03-14.46.26l-24.66-53.89-.42,69.37c-5.54,1.05-11.22.71-17.5.2v-111.59c6.39-.49,11.99-.5,18.41.03l31.63,70.32,31.14-70.26c6.38-.55,12.2-.77,18.66.14l-.11,111.31c-6.52.7-11.78.71-17.84.01Z"/>
      <path class="cls-4" d="M375.78,1320.31l-22.23-44.66-19.76-.03-.23,44.49c-6.53.88-12.72.7-19.61.12v-111.88c17.35.55,33.98-.94,50.64.49,20.58,1.77,33.6,20.55,29.48,40.07-2.15,11.3-9.74,19.32-20.36,23.87l24.04,47.04c-7.54,1.52-14.3.78-21.97.49ZM375.03,1240.85c-.03-7.89-5.87-14.25-13.51-14.28l-27.74-.1.03,30.9,26.41-.13c8.85-.05,15.68-6.95,14.81-16.39Z"/>
      <path class="cls-5" d="M864.03,1272.71l-45.69.3-.16,29.4,53.61.26c.32,6.04.38,11.44-.04,17.84l-73.37-.08-.02-111.95,73.34-.14c.55,5.8.33,11.28.1,17.78l-53.59.43.06,28.17,45.44.26c1.01,5.79.5,11.13.32,17.73Z"/>
      <path class="cls-5" d="M264.13,1320.65c-4.78-12.71-16.05-20.6-28.84-20.78-13.16-.19-24.79,7.92-29.63,20.6-6.62.14-12.49.54-19.12-.27l39.24-111.24c6.19-1.08,12.07-.77,18.65-.2l38.79,111.21c-6.15,1.4-11.78.3-19.09.68ZM251.8,1286.01l-16.78-48.97-17.23,49.59c12.11-4.91,22.5-3.75,34.01-.62Z"/>
      <path class="cls-6" d="M534.78,1317.27c0,2.23-1.15,3.37-2.79,3.34-5.71-.12-11.06.46-16.94-.43l-.11-93.6-31.62-.29-.12-17.42,83.04-.13c.69,6.1.67,11.58-.01,17.56l-31.34.17-.11,90.8Z"/>
      <rect class="cls-5" x="598.12" y="1208.71" width="19.81" height="111.91"/>
      <rect class="cls-5" x="431.44" y="1208.71" width="19.81" height="111.91"/>
    </g>
    <path class="cls-6" d="M1857.15,1129.83l-19.21.02c-.84-6.19-.75-12.15-.09-18.7,6.32-1.04,12.59-.71,19.07-.21.62,6.3.26,11.96.23,18.88Z"/>
    <path class="cls-6" d="M1828.99,1129.82c-6.89.31-12.77.38-19.3-.06-.51-6.23-.35-12.06-.1-18.62,6.22-1.05,12.45-.59,19.18-.29.81,6.32.49,11.99.21,18.98Z"/>
    <g>
      <rect class="cls-4" x="945.19" y="1302.19" width="519.32" height="18.44"/>
      <path class="cls-5" d="M1604.29,1227.54c.58,2.19,1.78,18.64-.96,18.84-6.04.45-11.76.28-18.03,0-.36-6.5-.33-12.36,0-18.89,6.44-.28,12.44-.39,19,.05Z"/>
      <g>
        <path class="cls-6" d="M2377.05,1294c0,4.87,4.62,9.13,9.51,9.14l90.92.34c4.33.02,7.56-2.02,7.57-6.49l.11-88.38c6.62-.37,12.35-.57,18.89.13l-.32,95.7c-.03,8.69-6.69,15.67-15.3,15.67h-99.99c-5.8-.02-10.53-2.87-13.76-7.57-3.31,4.31-7.73,7.61-13.76,7.6l-99.72-.14c-6.5,0-11.87-3.64-14.93-9.26-5.29,7.42-13.57,9.42-22.8,9.47l-39.59.22c-6.1.03-11.77-2.79-17.37-1.94l-12.89,1.96-93.99-.42c-6.02-.03-10.74-2.47-14.4-7.26-3.42,4.47-7.86,7.33-13.46,7.33l-112.69-.05c-8.02,0-14.6-6.77-14.63-14.7l-.36-96.76,18.51-.14.19,88.62c0,3.49,2.71,6.32,6.22,6.31l94.51-.1c4.38,0,5.3-5.04,5.33-8.55l.37-42.66c6.23-.55,11.97-.42,18.24-.1l.14,41.03c.02,5.15,3.88,10.18,9.85,10.19l91.04.16c3.53,0,5.92-4.04,5.96-7.19l.6-44.78c6.16-.91,12.13-.55,18.04-.24l1.15,6.45c15.36-7.15,31.21-10.79,47.48-7.83,21.72,3.96,30.06,20.68,28.5,41.55-.43,5.74,2.88,11.79,9.81,11.81l91.7.3c4.58.01,6.6-3.54,6.61-7.82l.19-87.06c6.35-.36,12.02-.33,18.37-.01l.14,85.46ZM2230.33,1294.21c.76-12.07.85-23.12-11.88-27.24-6.55-1.89-13.13-1.68-20-.7-8.67,1.35-16.58,4.49-24.65,8.04l-.35,29.1,46.52-.15c5.65-.02,9.97-2.87,10.35-9.06Z"/>
        <path class="cls-6" d="M1883.4,1262.65c-3.32,4.63-7.27,7.7-11.23,11.94-5.93-6.43-13.08-9.8-21.25-8.9-8.67.95-14.09,7.29-14.52,16.21-.4,8.3,3.87,20.76,13.18,20.98l36.58.88c.58,5.31.52,10.82.08,16.5l-170.56-.14c-8.78,0-15.32-6.97-15.35-15.69l-.35-95.86c6.42-.36,12.21-.42,18.9.03l.11,88.53c0,3.43,2.22,6.22,5.93,6.22h98.59c-5.85-7.93-7.6-16-6.71-25.05,1.33-13.49,9.79-24.18,22.96-27.97,14.98-3.73,32.97-1.63,43.65,12.3Z"/>
        <path class="cls-6" d="M1536.86,1304.65c-1.07-14.49-.2-28.07-.38-42.25,6.46-.55,12.05-.42,18.63-.1l.3,34.74c.03,3.85,2.68,6.38,6.67,6.38l93.77-.03c4.37,0,6.68-3.14,6.69-7.23l.14-43.97c6.29-.79,12.15-.56,18.7-.13l-.03,48.37c0,10.48-4.88,19.76-16.27,19.75l-113.04-.1c-8.67,0-14.55-6.82-15.18-15.43Z"/>
        <path class="cls-6" d="M2048.34,1226.7l-19.51-.14-.05-18.28c6.34-.9,12.37-.27,19.28-.37.77,6.2.28,12.03.28,18.78Z"/>
        <path class="cls-5" d="M1632.77,1246.31c-6.66.5-12.52.37-19.26.06-.87-6.19-.49-12.13-.23-18.66,6.62-.81,12.69-.41,19.36-.24l.12,18.84Z"/>
      </g>
    </g>
    <g>
      <path class="cls-5" d="M1175.11,1096.87c-6.5.82-12.19.45-18.81.22l-46.84-78.23-.33,78.01c-5.93.78-11.63.6-17.93.06l.04-111.45c6.76-.98,12.64-.9,19.01-.03l46.51,78.23.44-78.15c4.99-1.27,9.69-.4,14.72-.68,2.02.12,3.24,1.2,3.24,3.41l-.04,108.59Z"/>
      <path class="cls-5" d="M518.47,1097.31l-22.35-45.03-19.8-.08-.22,44.63c-6.57.89-12.79.55-19.61.2v-112.03s49.21.27,49.21.27c10.04.05,19.11,5.8,24.45,12.42,6.87,8.52,8.55,19.09,6.2,29.28-2.41,10.48-9.78,18.28-20.01,22.48l24.05,47.27c-7.56,1.29-13.92.27-21.91.6ZM517.55,1017.8c.05-8.03-5.89-13.97-13.5-14.56-9.24-.72-18.28-.07-27.74-.21v30.86s26.41,0,26.41,0c8.72,0,15.64-6.74,14.83-16.09Z"/>
      <path class="cls-5" d="M657.96,1096.54c-6.32,1.53-12.34.69-18.89.47l-46.77-78.35-.32,78.18c-5.93.72-11.72.82-17.95-.08l.02-111.25c6.66-1.03,12.69-1,19.08,0l46.35,77.93.5-77.89c5.73-1.09,11.61-1.07,17.89-.03l.08,110.99Z"/>
      <path class="cls-5" d="M199.81,1096.64c-6.29,1.34-12.13.64-18.57.35l-46.65-77.85-.48,77.84c-6.31.51-11.74.55-17.82-.03l.02-111.5c6.68-.89,12.5-.94,18.93.03l46.56,78.32.55-78.56c6.03-.57,11.19-.6,17.33.02l.13,111.37Z"/>
      <path class="cls-5" d="M1052.36,1067.96c-2.7,11.56-9.1,21.41-19.74,26.43-13.25,6.25-28.7,6.4-42.01.01-10.68-5.13-17.88-15.26-19.88-27.37-2.82-17.04-2.79-34.78,0-51.82,1.94-11.92,9.05-21.85,19.28-27.14s21.46-5.96,32.56-3.8c15.21,2.97,26.06,14.1,29.6,29.09,2.13,9.01,2.03,17.94,1.96,27.33s.42,17.93-1.76,27.27ZM1012.25,1081.14c10.37-.24,18.92-6.4,20.44-17.11,2.12-14.94,2.09-30.88.01-45.82-1.55-11.13-10.7-17.03-20.91-17.16-10.8-.14-18.98,5.93-21.41,16.75-1.88,8.41-1.95,38.96.19,47.37,2.65,10.41,10.59,16.24,21.67,15.98Z"/>
      <path class="cls-5" d="M412.2,1049.27l-45.59.28-.16,29.51,53.56.29c.41,5.99.36,11.26.05,17.82l-73.34.09v-112.34s73.34.14,73.34.14c.3,6.58.38,11.82-.06,17.8l-53.45.2-.03,28.3,42.33.02c6.09,0,3.11,9.98,3.35,17.9Z"/>
      <path class="cls-5" d="M1282.96,1097.33c-4.55-12.78-16-20.71-28.87-20.83-13.05-.13-24.83,7.71-29.46,20.45-6.26.53-12.25.67-19.24-.09l39.31-111.53c6.38-.66,12.32-.87,18.63.12l38.81,111.27c-6.37,1.24-11.9.25-19.19.61ZM1270.89,1063.17l-17.12-49.83-17.27,50.01c11.93-5.02,23.15-4.45,34.39-.18Z"/>
      <path class="cls-5" d="M765.82,1097.18c-4.62-12.75-16.31-20.73-29.24-20.65-12.89.07-24.5,8.05-29.12,20.6-6.41.18-11.98.49-19.12-.17l39.25-111.36c6.14-1.25,12.09-.9,18.63-.22l38.88,111.5c-6.61.87-12.35.34-19.27.31ZM753.8,1063.07l-17.12-49.58-17,49.82c12.13-4.91,22.49-4.21,34.12-.24Z"/>
      <path class="cls-5" d="M848.68,1096.91c-6.7.72-12.68.42-19.65.2l-.16-93.99-31.73-.53c.03-6.43-.51-11.73.34-17.67l82.7.08c.7,6.07.58,11.57.11,17.64l-31.52.45-.09,93.82Z"/>
      <path class="cls-5" d="M283.25,1096.9c-7.02.71-13.03.54-19.66.08l-.11-93.75-31.62-.54c-.34-6.1-.47-11.63.11-17.71l82.68-.02c.91,6.11.69,11.74.14,17.77l-31.45.38-.11,93.79Z"/>
      <path class="cls-5" d="M1405.98,1079.29c.72,6.02.4,11.3.18,17.89h-73.41s.03-111.69.03-111.69c6.62-1.03,12.82-.88,19.66-.08l.13,93.65,53.41.22Z"/>
      <rect class="cls-5" x="912.01" y="984.89" width="19.81" height="112.41"/>
      <rect class="cls-5" x="55.95" y="984.89" width="19.81" height="112.41"/>
      <rect class="cls-6" x="1480.42" y="1077.86" width="93.47" height="19.44"/>
      <path class="cls-6" d="M1675.03,1003.82c-6.65,1.09-12.9.36-19.6.38l-.1-18.63h19.51s.2,18.24.2,18.24Z"/>
      <g>
        <path class="cls-5" d="M1713.56,1016.97l.4,56.72c.03,3.82,2.61,6.69,6.6,6.7l97.18.07c3.84,0,6.91-2.3,6.94-6.28l.43-45.02c6.21-.66,12.16-.4,18.5-.2l.51,43.35c.05,4.39,5.41,7.91,10.03,7.92l87.63.26c5.01.02,8.79-2.86,10.08-7.48,2.58-9.27-1.53-17.93,4.56-30.8,7.58-16.03,26.05-18.68,41.36-15.2,10.43,2.37,17.72,9.54,20.81,19.62,2.34,7.64,2.34,15.27,2.21,23.33-.09,5.63,4.05,10.43,9.75,10.43h69.7c3.9,0,6.68-2.55,6.69-6.36l.18-88.7c6.62-.71,12.23-.76,18.77.05l-.23,95.05c-.02,9.6-6.74,16.7-16.18,16.69l-79.5-.02c-7.06,0-13.05-3.24-17.45-8.54-10.14,13.22-41.09,12.86-51.58.58-4.25,4.77-9.61,7.98-16,7.98l-89.43-.06c-5.84,0-10.7-2.84-13.99-7.48-3.47,4.55-8.53,7.53-14.94,7.53l-115.69-.06c-7.51,0-13.31-4.55-14.92-12.05-7.88,4.97-16.4,6.36-25.54,4.84-12.21-2.02-21.43-10.75-23.35-23.22-3.18-20.65,6.85-40.33,26.08-40.58l21.66-.29,1.03-8.74c5.67-.51,10.85-.43,17.69-.07ZM1680.44,1073.62c17.63.19,14.8-19.66,14.75-30.91-8.03.29-22.98-2.54-27.47,5.45-3.19,5.69-3.43,13.31-.64,19.11,2.38,4.94,7.78,6.3,13.36,6.36ZM1987.02,1081.29c6.59.5,11.73-2.83,13.49-8.59,2.02-6.63,1.9-13.65.17-20.29s-7.42-9.96-14.06-9.94c-6.19.02-11.56,2.77-13.52,8.94-2.35,7.39-2.46,15.77.52,23.16,2.06,5.11,7.67,7.16,13.41,6.72Z"/>
        <path class="cls-6" d="M2293.34,1074.48c.81,3.71,4.88,5.85,8.72,5.85l136.6.1c4.14,0,6.68-2.82,6.69-6.76l.25-88.44c5.66-.65,10.43-.24,15.59-.33,1.92-.03,3.22,1.28,3.22,3.37l-.06,86.77c0,3.38-.5,6.01-1.05,9.43-1.09,6.69-6.79,12.72-14.79,12.72h-285.62c-8.93,0-15.55-7.31-15.58-15.84l-.27-95.97c4.04-.12,18.89-2.36,18.9,1.98l.06,86.68c0,3.84,2.77,6.36,6.76,6.36l101.63.03c-2.81-12.52-2.28-24.87,2.83-36.07,5.46-11.96,17.65-18.32,30.66-18.45,13.31-1.31,25.83,3.73,33.78,14.48-3.6,4.17-6.74,7.18-10.9,11.03-7.06-7.38-16.27-10.95-25.95-7.86-12.18,3.88-13.79,20.16-11.44,30.92Z"/>
        <rect class="cls-5" x="2485.07" y="984.89" width="18.95" height="112.41"/>
        <path class="cls-6" d="M1703.01,1004.14l-19.32.03c-.76-6.27-.55-12.19-.11-18.57l19.26-.16.17,18.69Z"/>
      </g>
    </g>
  </g>
  <g>
    <g>
      <path class="cls-5" d="M760.44,1541.94l-20.99-42.93-19.82-.06-.08,41.88c0,2.02-1.18,3.29-3.23,3.25-5.42-.1-10.48.28-16.48-.29l-.11-112.04c16.7.22,33.14-.76,49.63.31s28.39,12.83,30.74,27.47c2.53,15.71-5.15,30.38-20.59,36.55l23.98,47.37c-7.02,1.36-12.7.29-19,.66-1.32.08-3.25-.54-4.06-2.18ZM760.9,1463.91c-.6-7.8-6.11-13.6-13.85-13.96-9.24-.43-18.34-.24-27.5.02l.07,30.77,26.73-.17c9.06-.06,15.25-7.36,14.54-16.66Z"/>
      <path class="cls-5" d="M321.38,1510.88c-2.25,20.42-17.11,32.94-36.96,32.98l-44.13.07.09-112.21,47.4.26c17.8.1,30.57,13.17,33.32,30.63,1.96,15.88,2.09,31.73.27,48.27ZM301.36,1507.72c1.42-13.51,1.4-26.92,0-40.03-1.09-10.22-8.7-17.12-18.6-17.72-7.61-.46-14.88-.21-22.67-.09v75.99c15.12,0,38.94,3.9,41.26-18.16Z"/>
      <path class="cls-5" d="M199.78,1543.34c-6.05,1.53-11.77.61-18.41.49l-46.82-78.21-.35,77.91c-5.86.99-11.49.69-17.89.18v-111.66c6.61-.67,12.15-.47,18.76-.12l46.74,78.49.53-78.51c6.25-.26,11.6-.68,17.41.25l.04,111.17Z"/>
      <path class="cls-5" d="M942.86,1496.06l-45.41.3v29.56s53.57.27,53.57.27c.28,6.31.44,11.68-.14,17.81l-73.26-.03-.08-112.13,73.32-.09c.57,6.1.53,11.55.03,17.77l-53.44.35v28.18s45.37.36,45.37.36l.03,17.65Z"/>
      <path class="cls-5" d="M1040.86,1543.03c-18.72,5.68-38.78,2.21-54.82-8.39-2.35-1.55-4.26-3.26-5.72-5.73l11.91-13.8c11.72,9.3,30.03,16.94,44.12,10.06,4.36-2.13,7.45-6.21,8.07-9.94.86-5.22-.06-10.19-4.16-13.33-9.62-7.36-24.01-3.7-39.44-11.38-10.43-5.19-15.93-14.67-16.06-26.34-.17-15.1,8.71-28.34,23.8-32.37,17.52-4.68,36.78-.97,51.52,10.04-2.33,5.46-5.58,9.48-8.62,14.1-2.23,3.39-14.18-10.94-34.06-7.73-5.54.89-9.86,4.45-11.57,9.18-1.88,5.2-.86,11.32,3.95,14.82,10.18,7.42,24.46,3.49,40.02,11.64,9.57,5.02,14.4,13.64,15.1,24.24,1.08,16.28-7.71,29.97-24.05,34.92Z"/>
      <path class="cls-5" d="M533.25,1543.36c-32.45,9.13-62.35-11.44-58.46-15.68,3.88-4.24,6.91-8.74,11.42-12.54,11.88,10,30.02,16.57,43.75,10.01,4.35-2.08,7.4-6.25,8.04-9.96.91-5.24-.05-10.08-4.19-13.26-9.9-7.63-25.12-3.6-40.5-11.98-10.17-5.55-15.14-15.12-14.99-26.62.2-14.86,8.97-27.6,23.84-31.53,17.48-4.62,36.81-1,51.48,10.08-2.01,5.11-5.33,8.64-7.78,13.03-3.37,6.04-12.34-9.6-34.16-6.8-5.56.71-10.23,3.95-12.03,8.51-2.14,5.39-1.47,11.43,3.2,15.22,8.91,7.24,23.39,4.57,36.51,10.18,6.64,2.84,12.84,7.01,15.95,13.8,4.75,10.35,4.37,22.75-1.48,32.62-4.45,7.51-11.77,12.44-20.6,14.93Z"/>
      <path class="cls-5" d="M440.9,1431.82l-.43,78.67c-.09,17.03-13.26,30.02-28.94,33.77-11.77,2.81-23.43,1.81-34.01-4.1-11.7-6.53-18.97-18.79-19.01-32.5l-.22-75.57c6.91-.75,12.71-.49,19.59-.19l.38,74.87c.07,13.02,10.1,21.7,22.84,20.98,10.31-.58,19.64-7.72,19.72-18.95l.49-76.69c6.53-.81,11.8-.43,19.6-.29Z"/>
      <path class="cls-5" d="M635.95,1543.63c-6.77.7-13.02.85-19.66-.14l-.14-93.61-28.19-.12c-1.8,0-3.64-.68-3.6-2.78.1-5.11-.5-9.91.47-15.27h82.82c.36,6.1.36,11.58,0,17.71l-31.61.43-.1,93.76Z"/>
      <rect class="cls-5" x="817.28" y="1431.68" width="19.81" height="112.77"/>
      <rect class="cls-5" x="55.95" y="1431.68" width="19.81" height="112.41"/>
    </g>
    <path class="cls-6" d="M1849.71,1450.86c-6.92.39-12.86.5-19.33-.09-.51-6.35-.47-12.37-.03-18.79,6.47-.55,12.53-.37,19.18-.13.65,6.35.39,12.03.17,19Z"/>
    <path class="cls-6" d="M1878,1450.82c-6.84.47-12.74.54-19.23-.05-.34-6.5-.66-12.63.17-18.92l18.94.02c.74,6.3.56,12.15.12,18.95Z"/>
    <g>
      <path class="cls-4" d="M2066.71,1518.14c.05,4.78,5.18,8.55,9.93,8.55l74.06-.09,32.31-.26c3.58-.03,6.49-2.55,7.1-5.98,2.04-11.46.3-28.3-14.17-31-8.77-1.64-16.71,1.62-23.24,8.36-4.27-3.1-7.28-6.84-11.09-10.67,8.59-12.09,22.77-16.29,37.16-14.59,15.05,1.78,26.78,11.33,30.13,26.25,1.48,6.59,1.59,12.82,1.76,19.85.1,4.2,5.23,8.14,9.81,8.15l93.32.1c4.19,0,5.23-4.9,5.26-8.25l.34-42.96c6.31-.68,12.16-.41,18.38-.16v40.55c-.01,5.51,3.9,10.67,10.23,10.69l90.68.23c3.68,0,6.6-2.62,6.61-6.44l.27-88.64h18.42s-.31,96.77-.31,96.77c-.03,8.09-6.6,14.82-14.64,14.82l-99.65.03c-5.89,0-10.54-2.68-13.78-7.47-3.32,4.49-7.6,7.48-13.24,7.48l-101.31-.05c-6.28,0-11.37-3.43-14.36-8.6-4.14,5-9.71,8.64-16.96,8.65l-111.71.1c-4.49,0-7.88-1.78-11.32-4.35-.16,8.03-.39,15.37-3.04,22.53-5.48,14.83-20.34,16.2-34.01,14.65-.1-5.35-.51-9.91.12-14.85.45-3.49,9.42.65,14.15-4.29,1.84-1.92,3.47-5.52,3.49-9.06l.35-72.69c6.25-.5,11.92-.32,18.51-.11l.46,42.76Z"/>
      <path class="cls-4" d="M2017.52,1528.3c-.05,8.3-6.38,15.12-14.7,15.12l-117.68.06c-7.44,0-12.66-5.11-14.36-12.07-15.39,11.06-41.37,5.17-48.32-12.52-3.57-9.08-3.3-20.58.84-29.42,5.04-10.79,16.06-17.07,27.36-17.19l19.04-.2,1.01-8.35,17.81-.08.31,55.97c.02,4.06,2.29,7.24,6.62,7.24l97.84-.07c3.49,0,5.8-3.1,5.82-6.26l.34-45.14c6.32-.29,11.82-.34,18.38.04l-.31,52.86ZM1869.81,1506.96c.59-6.03.39-11.82.21-17.81-5.68-.26-11.25-.27-16.77.01-8.9.45-13.41,7.12-12.94,15.56.24,4.33.23,8.52,3.35,11.52,2.92,2.8,6.78,3.75,11.17,3.91,8.12.3,14.12-4.46,14.98-13.2Z"/>
      <rect class="cls-5" x="2485.07" y="1431.68" width="18.95" height="111.91"/>
      <path class="cls-6" d="M2338.59,1576.64c-6.84.16-13,.51-19.59-.19l.06-18.37,19.36-.16.17,18.72Z"/>
      <path class="cls-6" d="M1991.52,1576.64c-6.81.16-12.92.52-19.4-.2-.53-6.45-.56-12.17,0-18.36l19.24-.16.17,18.72Z"/>
      <path class="cls-6" d="M2019.85,1576.54c-6.78.35-12.95.56-19.5-.09l.06-18.38,19.36-.15c.45,6.07.27,11.74.08,18.62Z"/>
    </g>
    <g>
      <rect class="cls-1" x="1136.38" y="1494.16" width="556.76" height="18.44"/>
      <rect class="cls-6" x="1173.82" y="1525.51" width="463.34" height="18.58"/>
      <rect class="cls-2" x="1507.12" y="1462.76" width="241.6" height="18.61"/>
      <rect class="cls-2" x="1173.82" y="1462.76" width="93.01" height="18.61"/>
      <rect class="cls-3" x="1173.82" y="1431.68" width="55.98" height="18.08"/>
      <rect class="cls-3" x="1525.66" y="1431.68" width="55.98" height="18.08"/>
      <path class="cls-6" d="M1303.85,1480.73c-6.41,1.09-12.32.36-18.75.38-.23-6.24-.45-11.9.15-18.05,6.06-.66,11.93-.56,18.16-.09.94,5.8.29,10.77.44,17.76Z"/>
      <path class="cls-6" d="M1340.65,1481.04l-18.52.04c-.22-6.18-.44-11.87.14-18.03,6.23-.53,12.21-.83,18.3.21.56,6.01.47,11.31.07,17.78Z"/>
      <path class="cls-6" d="M1377.91,1480.74c-6.37,1.06-12.26.41-18.68.34-.37-6.25-.48-11.9.08-18.02,6.07-.66,11.92-.55,18.17-.09.94,5.81.29,10.76.44,17.77Z"/>
      <path class="cls-6" d="M1303.79,1449.48l-18.59.2c-.54-5.99-.32-11.58-.11-17.82,6.43-.18,12.36-.58,18.61.23l.09,17.39Z"/>
      <path class="cls-6" d="M1340.82,1449.45l-18.59.23c-.54-5.96-.32-11.6-.11-17.8,6.23-.34,11.99-.34,18.34,0,.87,5.82.34,11.05.36,17.57Z"/>
    </g>
  </g>
</svg>