<?xml version="1.0" encoding="UTF-8"?>
<svg id="Layer_1" data-name="Layer 1" xmlns="http://www.w3.org/2000/svg" viewBox="0 0 2560 2560">
  <defs>
    <style>
      .cls-1 {
        fill: #099;
      }

      .cls-2 {
        fill: #642c8a;
      }
    </style>
  </defs>
  <path class="cls-1" d="M1264.96,855.72l-97.46,243.11-95.43-243.28-137.38.21.02,382.97,74.93-.22.94-266.37,107.86,270.64,65.78-.53,110.05-271.43.42,267.79h101.13s-.02-382.99-.02-382.99l-130.85.09ZM2090.6,855.71l-.64,253.2-129.02-253.19-123.25-.03.02,382.99,74.99.1.63-257.41,132.96,257.46,119.18-.38-.02-382.71-74.85-.02ZM692.3,1074.91l147.5-.19-.24-63.49-147.32-.18.12-85.82,169.08-.05-.15-69.52-271.64.03v382.97s276.12.02,276.12.02l.43-73.6-173.85-.09-.06-90.09ZM1594.93,1164.99l-.04-90.08,147.42-.19-.12-63.52-147.33-.1.21-85.86,169.22-.12-.18-69.46-271.76.02v382.96s276.36.05,276.36.05l-.07-73.61-173.71-.09ZM2419.13,1006.77l-69.3-32.81c-10.72-5.07-17.17-14.58-16.82-25.24,1.05-32.53,43.97-33.79,68.79-33.6,32.67.25,62.51,9.8,92.96,20.91l-.04-73.1c-34.83-6.76-67.95-12.28-102.89-13.89-73.14-1.71-156.07,25.52-159.26,110.74-1.49,39.75,16.18,74.51,50.98,94.52,27.35,15.72,55.36,28.33,84.65,40.61,26.78,11.23,56.53,22.28,52.71,50.91-1.48,11.08-10.34,20.54-22.83,24.64-45.74,15.02-111.14.03-157.71-13.77l.06,75.7c51.45,12.03,102.21,16.65,153.89,11.98,68.59-8.44,130.6-44.03,130.02-120.85-.51-66.98-50.49-90.86-105.2-116.77ZM215.31,1003.51l-63.13-30.06c-10.19-4.85-16.48-14.37-16.13-24.55,1.11-32.54,43.82-34.25,69.4-33.72,32.17.67,61.5,9.23,92.28,20.89l-.03-73.35c-35.34-6.51-67.66-12-102.16-13.67-74.62-2.03-159.61,26.69-159.87,114.67-.11,37.1,16.21,69.85,48.73,89.11,25.74,15.24,52.44,27.53,80.22,39.23,15.46,6.51,30.24,13.29,44.47,21.75,11.18,6.65,16.28,18.28,15.1,30.62-2.68,27.78-40.32,31.94-63.32,32.22-40.33.5-78.06-8.38-117.33-20.09l.13,75.84c51.87,12.05,102.61,16.71,154.38,12.1,68.92-8.75,131.52-45.7,129.46-123.06-1.83-68.61-56.23-91.29-112.2-117.93ZM386.78,1239.07h106.28v-383.4h-106.28v383.4Z"/>
  <path class="cls-2" d="M402.22,1584.56c3.86,43.1-26.38,72.99-67.32,74.61-62.63,2.47-122.83,2.95-185.62-.4-34.82-1.85-64.49-26.98-64.46-63.78l.12-159.06c.02-32.36,26-59.05,57.01-61.49,68.1-5.35,134.23-4.97,202.21-.06,32.3,2.33,57.87,29.35,57.93,61.23l.12,55.15-200.14.06.05,50.41,249.32.03-.18-105.65c-.11-63.92-52.21-109.87-114.12-112.27-64.63-2.51-125.46-2.99-190.22.33-59.35,3.04-110.71,48.35-110.69,109.71l.04,166.07c.01,54.01,44.46,102.39,98.9,106.92,73.36,6.11,144.63,6.43,217.77-.18,60.24-5.45,102.07-62.1,98.45-121l-49.18-.63ZM1973.78,1323.32c-63.68-2.52-124.24-2.63-187.97.01-62.89,2.61-114.04,49.65-114.02,114.32l.04,157.54c.01,56.48,43.09,106.13,100.02,111.33,72.87,6.66,142.97,4.55,216.02.74,54.74-7.39,99.21-52.18,99.28-108.19l.14-108.31-248.82.03.16,50.41,199.91.11-.3,54.83c-.2,37.1-30.45,60.86-64.66,62.67-62.79,3.3-122.87,2.87-185.72.29-36.51-1.5-67-26.56-67.01-65.1l-.06-155.68c-.01-36.25,27.76-62.72,63.09-64.78,64.09-3.74,125.79-3.43,189.84-.24,39.78,1.98,68.38,32.86,64.66,73.52l49.03.25c4.42-67.75-46.88-121.11-113.63-123.75ZM1110.9,1541.25l248.84-.02-.1-103.7c-.06-64.23-50.74-111.39-113.25-114.12-63.82-2.79-124.23-2.63-188.04-.1-62.86,2.49-114.33,49.64-114.31,114.28l.05,157.79c.02,54.99,42.29,105.82,98.33,110.81,73.2,6.52,144.64,6.38,217.74.2,61.14-5.17,104.07-62.9,99.17-121.3l-48.62-.48c3.84,43.49-27.14,73.2-68.38,74.67-62.71,2.24-122.72,2.95-185.54-.59-33.29-1.87-63.42-26.41-63.4-61.88l.11-162.23c.02-35.15,30.17-59.39,62.83-61,67.16-3.32,131.56-4.86,198.47,1.07,30.62,2.71,55.49,30.05,55.67,60.23l.34,55.82-200.23.15.32,50.41ZM786.25,1326.28c-57.99-7.36-114.98-6.98-173.53-.42-55.41,6.21-98.35,54.57-98.44,110.29l-.43,270.63,49.18.22-.1-265.67c-.01-34.6,23.13-64.32,58.5-67.25,52.39-4.33,103.69-5.44,157.29.67,31.89,3.63,54.8,31.5,54.82,62.55l.16,269.5,48.98.21.39-263.75c.08-57.49-38-109.53-96.81-116.99ZM1528.09,1325.88c-58.34.57-100.47,55.97-100.46,113.38l.03,267.64,49.16.1-.21-263.71c-.03-34.13,21.05-68.04,58.46-68.36l102.22-.87-.04-49.25-109.16,1.07ZM2523.77,1325.55l-60.89-.62-166.34,222.94c-13.6,18.23-20.8,40.55-20.86,63.14l-.26,96.07,49.23-.17-.03-91.82c.07-14.14,3.53-27.39,12.23-39.06l186.92-250.48ZM2156.32,1324.94l-63.09.93,172.47,207.38,29.85-41-139.22-167.31Z"/>
</svg>